<svg xmlns="http://www.w3.org/2000/svg" viewBox="0 0 28.99 28.1"><defs><style>.e2552fbe-03a8-4317-b968-d6f7b39017ca{fill:none;stroke-miterlimit:10;}.\39 bc9f824-a00b-4d5d-af95-837fcddc5334,.e2552fbe-03a8-4317-b968-d6f7b39017ca{stroke:#231f20;}.\39 bc9f824-a00b-4d5d-af95-837fcddc5334{fill:#fbb040;stroke-linecap:round;stroke-linejoin:round;}</style></defs><title>Asset 1xxxhdpi</title><g id="54e1c887-cf8d-4a4c-894d-a895743df061" data-name="Layer 2"><g id="cbbb000f-5bf7-4aa6-b63e-c3bf7bb8993e" data-name="Layer 1"><circle class="e2552fbe-03a8-4317-b968-d6f7b39017ca" cx="5.81" cy="9.07" r="2.36"/><path class="e2552fbe-03a8-4317-b968-d6f7b39017ca" d="M7.17,13.32H4.22s-1.61-.18-1.39,2.44V21H7.67v6.12H9.84V18.82H12v-2l-4.89.08Z"/><polyline class="e2552fbe-03a8-4317-b968-d6f7b39017ca" points="5.11 15.16 5.11 18.88 9.84 18.88"/><line class="e2552fbe-03a8-4317-b968-d6f7b39017ca" x1="0.5" y1="12.93" x2="0.5" y2="27.77"/><line class="e2552fbe-03a8-4317-b968-d6f7b39017ca" x1="2.83" y1="20.99" x2="0.5" y2="20.99"/><circle class="e2552fbe-03a8-4317-b968-d6f7b39017ca" cx="23.18" cy="9.39" r="2.36"/><path class="e2552fbe-03a8-4317-b968-d6f7b39017ca" d="M21.82,13.64h2.95s1.61-.18,1.39,2.44v5.23H21.32v6.12H19.15V18.82H17V17.13l4.89.08Z"/><polyline class="e2552fbe-03a8-4317-b968-d6f7b39017ca" points="23.88 15.49 23.88 19.2 19.15 19.2"/><line class="e2552fbe-03a8-4317-b968-d6f7b39017ca" x1="28.49" y1="13.26" x2="28.49" y2="28.1"/><line class="e2552fbe-03a8-4317-b968-d6f7b39017ca" x1="26.16" y1="21.31" x2="28.49" y2="21.31"/><line class="e2552fbe-03a8-4317-b968-d6f7b39017ca" x1="9.84" y1="18.82" x2="19.69" y2="18.82"/><circle class="9bc9f824-a00b-4d5d-af95-837fcddc5334" cx="11.33" cy="2.89" r="2.39"/><path class="9bc9f824-a00b-4d5d-af95-837fcddc5334" d="M17,9.48a10.34,10.34,0,0,0,.22,2.91c.1.2-2-.46-2.67-.46A2.45,2.45,0,1,1,17,9.48Z"/></g></g></svg>