<svg xmlns="http://www.w3.org/2000/svg" viewBox="0 0 26.82 31.67"><defs><style>.\34 5a071a5-ce93-42cf-aa98-7792e7426c3e{fill:none;}.\32 984ce74-1c2a-46c7-a6d0-3afaaa5ec253,.\34 5a071a5-ce93-42cf-aa98-7792e7426c3e,.a7a872cd-c541-4a0b-a8f4-1878d864c05a{stroke:#231f20;stroke-linecap:round;stroke-linejoin:round;}.a7a872cd-c541-4a0b-a8f4-1878d864c05a{fill:#fbb040;}.\34 e105d31-09ae-4fa4-a180-20e1bf186f76{font-size:6.47px;}.\30 6f38cac-84dd-42a8-9d5b-90a1b9dc06ac,.\34 e105d31-09ae-4fa4-a180-20e1bf186f76{fill:#231f20;font-family:Muli-Bold, Muli;font-weight:700;}.\30 6f38cac-84dd-42a8-9d5b-90a1b9dc06ac{font-size:3.48px;}.\32 984ce74-1c2a-46c7-a6d0-3afaaa5ec253{fill:#e6e7e8;}</style></defs><title>Asset 1xxxhdpi</title><g id="4cad408e-41ad-4f94-a6d4-e3480a453e46" data-name="Layer 2"><g id="ecdb6e39-fcf6-4420-9818-385fab518e5a" data-name="Layer 1"><path class="45a071a5-ce93-42cf-aa98-7792e7426c3e" d="M8.19,10.31s-.09,13.85,0,13.85h8.54V10.31L12.44,3Z"/><line class="45a071a5-ce93-42cf-aa98-7792e7426c3e" x1="8.19" y1="10.31" x2="16.73" y2="10.31"/><path class="45a071a5-ce93-42cf-aa98-7792e7426c3e" d="M8.15,18.76s-4.1.45-3.92,6.56a3.44,3.44,0,0,1,4-1.17"/><path class="45a071a5-ce93-42cf-aa98-7792e7426c3e" d="M16.63,18.76s4.5.45,4.32,6.56a3.44,3.44,0,0,0-4-1.17"/><line class="45a071a5-ce93-42cf-aa98-7792e7426c3e" x1="9.45" y1="24.15" x2="9.45" y2="26.76"/><line class="45a071a5-ce93-42cf-aa98-7792e7426c3e" x1="15.61" y1="26.76" x2="9.2" y2="26.76"/><line class="45a071a5-ce93-42cf-aa98-7792e7426c3e" x1="15.43" y1="24.15" x2="15.43" y2="26.76"/><path class="45a071a5-ce93-42cf-aa98-7792e7426c3e" d="M11.2,26.76v4.18s-2.48-3.1-4.81.22c0,0-1.89-5.13-5.89-1.39"/><path class="45a071a5-ce93-42cf-aa98-7792e7426c3e" d="M13.44,26.76v4.18s2.48-3.1,4.81.22c0,0,1.89-5.13,5.89-1.39"/><circle class="a7a872cd-c541-4a0b-a8f4-1878d864c05a" cx="12.5" cy="14.53" r="1.98"/><text class="4e105d31-09ae-4fa4-a180-20e1bf186f76" transform="translate(19.52 5.54)">+</text><text class="4e105d31-09ae-4fa4-a180-20e1bf186f76" transform="translate(22.93 11.84)">+</text><text class="4e105d31-09ae-4fa4-a180-20e1bf186f76" transform="translate(0.01 10.31)">+</text><text class="06f38cac-84dd-42a8-9d5b-90a1b9dc06ac" transform="translate(4.82 6)">+</text><circle class="2984ce74-1c2a-46c7-a6d0-3afaaa5ec253" cx="4.68" cy="13.99" r="1.44"/><circle class="a7a872cd-c541-4a0b-a8f4-1878d864c05a" cx="21.49" cy="16.51" r="1.44"/></g></g></svg>