<svg xmlns="http://www.w3.org/2000/svg" viewBox="0 0 534.55 527.35"><defs><style>.c5478043-767e-42cc-8664-d83957238647{opacity:0.5;}.\35 e01be33-a301-47df-a529-1e794d5f24e8,.\38 460758e-bdba-4e82-aa5e-35e89564c3d4,.\38 f0c09fb-4151-41db-9389-9d316e96ce49,.d5b7c7e4-f5c7-4f46-bd0f-30b751228592,.d96b95f7-1d60-45a4-a8df-08b81027e47e,.ef5b5b3f-3d7b-4fb3-9e2d-c499a3239d32{fill:none;}.\35 e01be33-a301-47df-a529-1e794d5f24e8,.\38 460758e-bdba-4e82-aa5e-35e89564c3d4,.\38 f0c09fb-4151-41db-9389-9d316e96ce49,.c1343303-3619-4476-b7ea-fcb4999ec415,.d5b7c7e4-f5c7-4f46-bd0f-30b751228592,.d96b95f7-1d60-45a4-a8df-08b81027e47e,.ef5b5b3f-3d7b-4fb3-9e2d-c499a3239d32{stroke:#424143;stroke-linecap:round;stroke-linejoin:round;}.ef5b5b3f-3d7b-4fb3-9e2d-c499a3239d32{opacity:0.8;}.\38 460758e-bdba-4e82-aa5e-35e89564c3d4{opacity:0.6;}.d5b7c7e4-f5c7-4f46-bd0f-30b751228592{opacity:0.4;}.d96b95f7-1d60-45a4-a8df-08b81027e47e{opacity:0.2;}.\30 efb6b31-64c6-499f-a2ef-8e7d051cdb0d,.c1343303-3619-4476-b7ea-fcb4999ec415{fill:#fff;}.\35 e01be33-a301-47df-a529-1e794d5f24e8,.c1343303-3619-4476-b7ea-fcb4999ec415{stroke-width:2px;}.\34 14539be-404f-41fe-b027-e054f0d646c6{fill:#27aae1;}.\36 68915b9-68fd-4f28-aef2-2a90186d0290{fill:#f7941d;}.\35 b13337f-0373-4acf-9638-5238c555d36e{fill:#bcbec0;}</style></defs><title>Asset 2xxxhdpi</title><g id="ddcc9e65-fdc7-4639-b0fd-efd50b9f3733" data-name="Layer 2"><g id="8d7208e7-d046-426e-9863-2fc648eac09f" data-name="Layer 1"><g class="c5478043-767e-42cc-8664-d83957238647"><circle class="ef5b5b3f-3d7b-4fb3-9e2d-c499a3239d32" cx="266.08" cy="213.41" r="110.82"/><circle class="8f0c09fb-4151-41db-9389-9d316e96ce49" cx="268.88" cy="219.84" r="84.07"/><circle class="8460758e-bdba-4e82-aa5e-35e89564c3d4" cx="266.08" cy="213.41" r="148.04"/><circle class="d5b7c7e4-f5c7-4f46-bd0f-30b751228592" cx="266.08" cy="213.41" r="183.32"/><circle class="d96b95f7-1d60-45a4-a8df-08b81027e47e" cx="266.08" cy="213.41" r="212.91"/></g><rect id="96d3fd28-6a63-4e1c-a8de-5bd5554524f2" data-name="&lt;Rectangle&gt;" class="c1343303-3619-4476-b7ea-fcb4999ec415" x="129.5" y="360.68" width="368.53" height="137.39"/><g id="2b6b3926-e192-4b3e-ae2e-6295b6e88552" data-name="&lt;Group&gt;"><rect id="19e8d385-1809-4411-b168-cb03c5537b7d" data-name="&lt;Rectangle&gt;" class="c1343303-3619-4476-b7ea-fcb4999ec415" x="455.09" y="311.44" width="5.59" height="15.64" transform="translate(47.26 -58.86) rotate(7.75)"/><polygon id="b0b2f327-0122-4c9c-9d0b-8b044af06afd" data-name="&lt;Path&gt;" class="c1343303-3619-4476-b7ea-fcb4999ec415" points="454.06 326.63 456.09 332.43 459.6 327.38 454.06 326.63"/><rect id="59875ca0-52d4-4ec0-a594-98fdd214fe2f" data-name="&lt;Rectangle&gt;" class="c1343303-3619-4476-b7ea-fcb4999ec415" x="457.82" y="286.87" width="5.59" height="24.75" transform="translate(44.59 -59.41) rotate(7.75)"/><rect id="464b73b8-b01b-4784-8cf6-f29ccf24ef6f" data-name="&lt;Rectangle&gt;" class="c1343303-3619-4476-b7ea-fcb4999ec415" x="459.35" y="286.98" width="5.59" height="2.12" transform="translate(43.09 -59.72) rotate(7.75)"/><polyline id="5dc0a702-2520-4671-97fb-d340f9c74050" data-name="&lt;Path&gt;" class="5e01be33-a301-47df-a529-1e794d5f24e8" points="458.84 286.52 456.94 286.26 454.01 307.78"/><rect id="8e7ccc13-9af1-41eb-9923-a883641fb736" data-name="&lt;Rectangle&gt;" class="c1343303-3619-4476-b7ea-fcb4999ec415" x="461.18" y="280.6" width="3.07" height="6.41" transform="translate(42.52 -59.84) rotate(7.75)"/></g><g id="9e355ad2-1bb4-4114-b23d-ea8131ce788e" data-name="&lt;Group&gt;"><rect id="49b8efac-10a0-4fd5-a9b1-af02591f9e68" data-name="&lt;Rectangle&gt;" class="c1343303-3619-4476-b7ea-fcb4999ec415" x="437.93" y="294.68" width="5.59" height="32.2" transform="matrix(0.99, -0.14, 0.14, 0.99, -39.53, 65.48)"/><polygon id="a42f7b37-1681-450b-8210-05751031c6e8" data-name="&lt;Path&gt;" class="c1343303-3619-4476-b7ea-fcb4999ec415" points="440.24 327.11 443.78 332.13 445.77 326.31 440.24 327.11"/><rect id="4dc34e96-f99f-40c5-a579-9d4324f8c1df" data-name="&lt;Rectangle&gt;" class="c1343303-3619-4476-b7ea-fcb4999ec415" x="435.46" y="292.17" width="5.59" height="2.68" transform="matrix(0.99, -0.14, 0.14, 0.99, -37.12, 64.95)"/><path id="3b42a74e-85d8-4c06-810f-64bd72145924" data-name="&lt;Rectangle&gt;" class="c1343303-3619-4476-b7ea-fcb4999ec415" d="M437.09,286.22h1.11a2.24,2.24,0,0,1,2.24,2.24v3.75a0,0,0,0,1,0,0h-5.59a0,0,0,0,1,0,0v-3.75A2.24,2.24,0,0,1,437.09,286.22Z" transform="translate(-36.52 64.82) rotate(-8.13)"/></g><rect id="3f905ce8-4cca-41fa-9454-ff95b9e8783d" data-name="&lt;Rectangle&gt;" class="c1343303-3619-4476-b7ea-fcb4999ec415" x="27.47" y="360.68" width="87.28" height="56.57"/><rect id="70bdcfe8-9d11-49e4-b80b-8e3e42de9747" data-name="&lt;Rectangle&gt;" class="c1343303-3619-4476-b7ea-fcb4999ec415" x="384.18" y="338.51" width="5.05" height="7.41" rx="2.02" ry="2.02"/><path id="ff7166d7-9ea8-43d0-986f-26dc75629786" data-name="&lt;Rectangle&gt;" class="5e01be33-a301-47df-a529-1e794d5f24e8" d="M184,346.13H350.52a0,0,0,0,1,0,0v1.45a5.82,5.82,0,0,1-5.82,5.82H189.85a5.82,5.82,0,0,1-5.82-5.82v-1.45a0,0,0,0,1,0,0Z"/><path id="c3030d20-3dfc-4257-9d14-3e9e1253d8b2" data-name="&lt;Path&gt;" class="c1343303-3619-4476-b7ea-fcb4999ec415" d="M374,204.71a16.78,16.78,0,0,0-16.78-16.78H177.37a16.78,16.78,0,0,0-16.78,16.78v89.9H374Z"/><g id="c3deae2b-7bb5-4be3-8b54-a227086f446e" data-name="&lt;Group&gt;"><path id="8f21eef6-0bf5-4012-9904-9d48fe971b8e" data-name="&lt;Path&gt;" class="c1343303-3619-4476-b7ea-fcb4999ec415" d="M166.65,294.61v-89.9A10.73,10.73,0,0,1,177.37,194h179.8a10.73,10.73,0,0,1,10.72,10.72v89.9Z"/></g><path id="aadddd2a-baee-41b0-8de7-317feb686741" data-name="&lt;Path&gt;" class="c1343303-3619-4476-b7ea-fcb4999ec415" d="M177.37,318.25h179.8A16.78,16.78,0,0,0,374,301.47v-6.86H160.59v6.86A16.78,16.78,0,0,0,177.37,318.25Z"/><polyline id="ea8db1cd-1c09-4193-9801-edb22b39029d" data-name="&lt;Path&gt;" class="c1343303-3619-4476-b7ea-fcb4999ec415" points="196.08 353.39 1 353.39 1 360.68 193.41 360.68"/><polyline id="8532735f-e14b-4492-94eb-5c4440c4b713" data-name="&lt;Path&gt;" class="c1343303-3619-4476-b7ea-fcb4999ec415" points="338.45 353.39 533.55 353.39 533.55 360.68 341.13 360.68"/><g id="e7cd1dfe-c119-4204-b68d-e42e10f335ba" data-name="&lt;Group&gt;"><polygon id="3a86fbe8-d560-4aad-b94e-2f6217e492b2" data-name="&lt;Path&gt;" class="c1343303-3619-4476-b7ea-fcb4999ec415" points="238.25 412.83 177.24 526.35 185.07 526.35 246.09 412.83 238.25 412.83"/><polygon id="94ad0951-8ad3-47b0-99a7-eec261047280" data-name="&lt;Path&gt;" class="c1343303-3619-4476-b7ea-fcb4999ec415" points="290.34 412.83 351.36 526.35 343.53 526.35 282.51 412.83 290.34 412.83"/><rect id="5b46ff02-50e3-4640-8db2-abb4d5a854d4" data-name="&lt;Path&gt;" class="c1343303-3619-4476-b7ea-fcb4999ec415" x="260.46" y="412.83" width="7.68" height="113.53"/></g><line id="3b31c23c-e099-4af8-b074-00964427d3a4" data-name="&lt;Path&gt;" class="5e01be33-a301-47df-a529-1e794d5f24e8" x1="202.99" y1="478.45" x2="326" y2="478.45"/><circle id="7be1d93d-77df-40d4-92a0-9034b0cba524" data-name="&lt;Path&gt;" class="5e01be33-a301-47df-a529-1e794d5f24e8" cx="356.2" cy="307.94" r="3.03"/><path id="29b4158a-c4a2-4764-becd-254f07d758e2" data-name="&lt;Rectangle&gt;" class="c1343303-3619-4476-b7ea-fcb4999ec415" d="M383.41,341.58h5.86a9.46,9.46,0,0,1,9.46,9.46v2.35a0,0,0,0,1,0,0H374a0,0,0,0,1,0,0V351A9.46,9.46,0,0,1,383.41,341.58Z"/><path id="64219392-02b8-4666-805c-78a99048054d" data-name="&lt;Path&gt;" class="c1343303-3619-4476-b7ea-fcb4999ec415" d="M389.63,349.76h.82a11,11,0,0,0,6.69-2.27h0"/><rect id="65dfd4f6-7f73-460c-bead-33556fe2ddbf" data-name="&lt;Rectangle&gt;" class="c1343303-3619-4476-b7ea-fcb4999ec415" x="40.37" y="373.61" width="61.49" height="30.71"/><path id="2e7ca9b0-1847-41d9-822c-cc2a763f81d5" data-name="&lt;Rectangle&gt;" class="c1343303-3619-4476-b7ea-fcb4999ec415" d="M56,386.54H86.2a3.88,3.88,0,0,1,3.88,3.88v1a0,0,0,0,1,0,0H52.14a0,0,0,0,1,0,0v-1A3.88,3.88,0,0,1,56,386.54Z"/><rect id="1e345c8b-9500-4bcd-9b98-ca0abf9cb74b" data-name="&lt;Rectangle&gt;" class="c1343303-3619-4476-b7ea-fcb4999ec415" x="27.47" y="417.25" width="87.28" height="56.57"/><rect id="a36bcad9-c599-496f-869f-f88c73c6f586" data-name="&lt;Rectangle&gt;" class="c1343303-3619-4476-b7ea-fcb4999ec415" x="40.37" y="430.18" width="61.49" height="30.71"/><path id="4a3c0805-1819-41e0-b71b-434091df3825" data-name="&lt;Rectangle&gt;" class="c1343303-3619-4476-b7ea-fcb4999ec415" d="M56,443.11H86.2A3.88,3.88,0,0,1,90.08,447v1a0,0,0,0,1,0,0H52.14a0,0,0,0,1,0,0v-1A3.88,3.88,0,0,1,56,443.11Z"/><rect id="25afb367-4ee0-4e7c-8ba1-6b8cab7ab5b0" data-name="&lt;Path&gt;" class="c1343303-3619-4476-b7ea-fcb4999ec415" x="19.99" y="360.68" width="7.48" height="165.68"/><rect id="77cd3ca3-3b74-4aa9-8721-9364ddd8fbb1" data-name="&lt;Path&gt;" class="c1343303-3619-4476-b7ea-fcb4999ec415" x="114.75" y="360.68" width="7.48" height="165.68"/><rect id="a8b0dbbc-dda5-45f5-a410-9de02d3db14f" data-name="&lt;Path&gt;" class="c1343303-3619-4476-b7ea-fcb4999ec415" x="505.44" y="360.68" width="7.48" height="165.68"/><g id="ddf71a05-995d-4f17-8d61-78be8a7bfa64" data-name="&lt;Group&gt;"><line id="cfb97c16-adbb-4101-bf32-d1be79c392d0" data-name="&lt;Path&gt;" class="c1343303-3619-4476-b7ea-fcb4999ec415" x1="231.12" y1="238.44" x2="242.84" y2="250.16"/><line id="5c763477-2bd3-4255-84c1-86d4115013fc" data-name="&lt;Path&gt;" class="c1343303-3619-4476-b7ea-fcb4999ec415" x1="261.83" y1="238.44" x2="273.54" y2="250.16"/><line id="da899fc0-678f-46e6-8c81-3c1230e20dee" data-name="&lt;Path&gt;" class="c1343303-3619-4476-b7ea-fcb4999ec415" x1="271.54" y1="232.8" x2="294.54" y2="255.8"/><line id="fb12fd1b-66ca-412d-aab0-7cf09ea1c59b" data-name="&lt;Path&gt;" class="c1343303-3619-4476-b7ea-fcb4999ec415" x1="293.35" y1="239.26" x2="303.42" y2="249.33"/><line id="69fb8fbb-ba95-455d-baf6-924d008ab2ff" data-name="&lt;Path&gt;" class="c1343303-3619-4476-b7ea-fcb4999ec415" x1="237.01" y1="228.97" x2="267.66" y2="259.62"/></g><g id="5474383c-de12-460a-9d4a-8ce72b242810" data-name="&lt;Group&gt;"><polygon id="2d026764-3c69-4c5e-9534-4fc92a9c15e7" data-name="&lt;Path&gt;" class="c1343303-3619-4476-b7ea-fcb4999ec415" points="463.77 321 460.96 353.39 439.25 353.39 436.19 321 463.77 321"/><g id="79b19e8c-d259-4559-a13c-67d7dc08402d" data-name="&lt;Group&gt;"><line id="8c1b949a-eee1-40c1-8e20-dd16cb5ac4c5" data-name="&lt;Path&gt;" class="5e01be33-a301-47df-a529-1e794d5f24e8" x1="446.31" y1="353.39" x2="445.39" y2="321"/><line id="da997420-6643-4fb0-b740-5362e4343561" data-name="&lt;Path&gt;" class="5e01be33-a301-47df-a529-1e794d5f24e8" x1="453.66" y1="353.39" x2="454.58" y2="321"/></g><line id="fb04ae16-784c-4045-b513-84aa2025559b" data-name="&lt;Path&gt;" class="5e01be33-a301-47df-a529-1e794d5f24e8" x1="437.65" y1="326.74" x2="462.55" y2="326.74"/><line id="6e93c007-1299-4404-aae6-7c0aef831124" data-name="&lt;Path&gt;" class="5e01be33-a301-47df-a529-1e794d5f24e8" x1="437.65" y1="333.4" x2="462.55" y2="333.4"/><line id="abbb6060-03a6-4fe0-936d-062c50f0f852" data-name="&lt;Path&gt;" class="5e01be33-a301-47df-a529-1e794d5f24e8" x1="438.35" y1="340.06" x2="461.86" y2="340.06"/><line id="488602d5-c893-4893-92f7-4ed461a9358f" data-name="&lt;Path&gt;" class="5e01be33-a301-47df-a529-1e794d5f24e8" x1="438.98" y1="346.73" x2="461.23" y2="346.73"/><rect id="e1cb67af-585c-4d91-af64-45215e0ad74d" data-name="&lt;Rectangle&gt;" class="c1343303-3619-4476-b7ea-fcb4999ec415" x="432.67" y="316.53" width="34.63" height="4.47" rx="1.79" ry="1.79"/></g><polyline id="db7feed5-1b7b-41de-90af-82dfd8211038" data-name="&lt;Path&gt;" class="5e01be33-a301-47df-a529-1e794d5f24e8" points="478.41 491.8 490.88 491.8 490.88 478.45"/><line id="3df7bade-0262-4d01-96e6-62ed3fe87fe6" data-name="&lt;Path&gt;" class="5e01be33-a301-47df-a529-1e794d5f24e8" x1="490.88" y1="386.54" x2="490.88" y2="360.68"/><line id="83e0a69a-66b5-4268-aaea-6e82e0b5e362" data-name="&lt;Path&gt;" class="5e01be33-a301-47df-a529-1e794d5f24e8" x1="137.07" y1="404.32" x2="137.07" y2="440.74"/><path class="c1343303-3619-4476-b7ea-fcb4999ec415" d="M324.87,414.92H202.27a5.17,5.17,0,0,1-5.16-5.16l-6.89-123.62a5.17,5.17,0,0,1,5.16-5.16H336.77a5.17,5.17,0,0,1,5.16,5.16L330,409.76A5.17,5.17,0,0,1,324.87,414.92Z"/><rect class="414539be-404f-41fe-b027-e054f0d646c6" x="45.96" y="182.38" width="81" height="22.18" rx="10.75" ry="10.75"/><rect class="668915b9-68fd-4f28-aef2-2a90186d0290" x="382.67" y="176.84" width="81" height="22.18" rx="10.75" ry="10.75"/><rect class="5b13337f-0373-4acf-9638-5238c555d36e" x="211.84" y="22.86" width="81" height="22.18" rx="10.75" ry="10.75"/><path class="0efb6b31-64c6-499f-a2ef-8e7d051cdb0d" d="M63.61,196.89a.73.73,0,0,1-.2-.54v-7.26a.75.75,0,0,1,.79-.79.8.8,0,0,1,.59.22.78.78,0,0,1,.22.58v6.69h3.48q.74,0,.74.66t-.74.66H64.16A.75.75,0,0,1,63.61,196.89Z"/><path class="0efb6b31-64c6-499f-a2ef-8e7d051cdb0d" d="M70.24,189.57A.78.78,0,0,1,70,189a.76.76,0,0,1,.25-.59,1.11,1.11,0,0,1,1.33,0,.75.75,0,0,1,.25.59.78.78,0,0,1-.25.6,1.09,1.09,0,0,1-1.34,0Zm.12,7.39a.7.7,0,0,1-.22-.55v-4.78a.68.68,0,0,1,.22-.54.82.82,0,0,1,.55-.19.84.84,0,0,1,.56.19.67.67,0,0,1,.22.54v4.78a.69.69,0,0,1-.22.55.82.82,0,0,1-.56.19A.8.8,0,0,1,70.36,197Z"/><path class="0efb6b31-64c6-499f-a2ef-8e7d051cdb0d" d="M78.43,191.5a2.81,2.81,0,0,1,.53,1.87v3a.72.72,0,0,1-.2.54.77.77,0,0,1-.56.2.8.8,0,0,1-.57-.2.71.71,0,0,1-.21-.54v-3a1.61,1.61,0,0,0-.27-1,1,1,0,0,0-.84-.32,1.41,1.41,0,0,0-1.07.42,1.56,1.56,0,0,0-.4,1.13v2.76a.71.71,0,0,1-.21.54.8.8,0,0,1-.57.2.77.77,0,0,1-.56-.2.72.72,0,0,1-.2-.54v-4.79a.68.68,0,0,1,.21-.52.8.8,0,0,1,.57-.2.74.74,0,0,1,.53.19.66.66,0,0,1,.2.5v.33a2.09,2.09,0,0,1,.83-.78,2.49,2.49,0,0,1,1.18-.27A2,2,0,0,1,78.43,191.5Z"/><path class="0efb6b31-64c6-499f-a2ef-8e7d051cdb0d" d="M86.16,196.42a.73.73,0,0,1-.2.51.63.63,0,0,1-.48.22.73.73,0,0,1-.51-.22l-2.9-2.62v2.12a.67.67,0,0,1-.22.54.84.84,0,0,1-.56.19.82.82,0,0,1-.55-.19.68.68,0,0,1-.22-.54V189a.68.68,0,0,1,.22-.54.82.82,0,0,1,.55-.19.84.84,0,0,1,.56.19.67.67,0,0,1,.22.54v4.66l2.65-2.54a.7.7,0,0,1,.51-.22.72.72,0,0,1,.71.71.72.72,0,0,1-.24.52L83.76,194l2.15,1.93A.72.72,0,0,1,86.16,196.42Z"/><path class="0efb6b31-64c6-499f-a2ef-8e7d051cdb0d" d="M92.21,195.59a.67.67,0,0,1,.13.43.75.75,0,0,1-.46.64,4.14,4.14,0,0,1-1,.38,3.94,3.94,0,0,1-1,.14,3.16,3.16,0,0,1-2.32-.84,3.09,3.09,0,0,1-.85-2.3,3.53,3.53,0,0,1,.37-1.65,2.7,2.7,0,0,1,1-1.11,3,3,0,0,1,1.53-.4,2.75,2.75,0,0,1,1.42.36,2.44,2.44,0,0,1,.94,1,3.37,3.37,0,0,1,.33,1.55q0,.53-.47.53H88.27a2,2,0,0,0,.48,1.26,1.62,1.62,0,0,0,1.19.4,2.25,2.25,0,0,0,.7-.1,6.85,6.85,0,0,0,.69-.27,1.37,1.37,0,0,1,.54-.2A.42.42,0,0,1,92.21,195.59Zm-3.49-3.22a1.87,1.87,0,0,0-.45,1.14h2.8a1.77,1.77,0,0,0-.37-1.15,1.22,1.22,0,0,0-1-.39A1.33,1.33,0,0,0,88.72,192.37Z"/><path class="0efb6b31-64c6-499f-a2ef-8e7d051cdb0d" d="M99.28,188.49a.66.66,0,0,1,.22.52v7.4a.7.7,0,0,1-.21.53.88.88,0,0,1-1.11,0,.7.7,0,0,1-.21-.53v-.31a1.94,1.94,0,0,1-.79.79,2.38,2.38,0,0,1-1.17.28,2.51,2.51,0,0,1-1.39-.4,2.63,2.63,0,0,1-1-1.12,3.87,3.87,0,0,1-.34-1.67,3.75,3.75,0,0,1,.34-1.65A2.5,2.5,0,0,1,96,190.88a2.42,2.42,0,0,1,1.16.27,1.89,1.89,0,0,1,.78.77V189a.66.66,0,0,1,.2-.5.77.77,0,0,1,.55-.19A.83.83,0,0,1,99.28,188.49Zm-1.71,7A2.28,2.28,0,0,0,98,194a2.25,2.25,0,0,0-.4-1.44,1.37,1.37,0,0,0-1.13-.5,1.41,1.41,0,0,0-1.15.5,2.18,2.18,0,0,0-.41,1.42,2.31,2.31,0,0,0,.41,1.46,1.53,1.53,0,0,0,2.28,0Z"/><path class="0efb6b31-64c6-499f-a2ef-8e7d051cdb0d" d="M101.19,189.57a.78.78,0,0,1-.25-.6.76.76,0,0,1,.25-.59,1.11,1.11,0,0,1,1.33,0,.75.75,0,0,1,.25.59.78.78,0,0,1-.25.6,1.09,1.09,0,0,1-1.34,0Zm.12,7.39a.7.7,0,0,1-.22-.55v-4.78a.68.68,0,0,1,.22-.54.82.82,0,0,1,.55-.19.84.84,0,0,1,.56.19.67.67,0,0,1,.22.54v4.78a.69.69,0,0,1-.22.55.82.82,0,0,1-.56.19A.8.8,0,0,1,101.31,197Z"/><path class="0efb6b31-64c6-499f-a2ef-8e7d051cdb0d" d="M109.38,191.5a2.81,2.81,0,0,1,.53,1.87v3a.72.72,0,0,1-.2.54.77.77,0,0,1-.56.2.8.8,0,0,1-.57-.2.71.71,0,0,1-.21-.54v-3a1.61,1.61,0,0,0-.27-1,1,1,0,0,0-.84-.32,1.41,1.41,0,0,0-1.07.42,1.56,1.56,0,0,0-.4,1.13v2.76a.71.71,0,0,1-.21.54.8.8,0,0,1-.57.2.77.77,0,0,1-.56-.2.72.72,0,0,1-.2-.54v-4.79a.68.68,0,0,1,.21-.52.8.8,0,0,1,.57-.2.74.74,0,0,1,.53.19.66.66,0,0,1,.2.5v.33a2.09,2.09,0,0,1,.83-.78,2.49,2.49,0,0,1,1.18-.27A2,2,0,0,1,109.38,191.5Z"/><path class="0efb6b31-64c6-499f-a2ef-8e7d051cdb0d" d="M239.26,37.56A.58.58,0,0,1,239,38a.83.83,0,0,1-.54.19.81.81,0,0,1-.68-.37l-1.65-2.5a1.61,1.61,0,0,0-.53-.56,1.44,1.44,0,0,0-.72-.16H233.7V37.4a.81.81,0,0,1-.21.59.76.76,0,0,1-.57.22.78.78,0,0,1-.58-.22.79.79,0,0,1-.22-.59V30.15a.74.74,0,0,1,.2-.56.77.77,0,0,1,.56-.2H236a3.39,3.39,0,0,1,2.26.66A2.38,2.38,0,0,1,239,32a2.42,2.42,0,0,1-.58,1.67,2.73,2.73,0,0,1-1.63.84,1.55,1.55,0,0,1,.63.31,2.74,2.74,0,0,1,.53.62l1.13,1.72A.79.79,0,0,1,239.26,37.56Zm-2.17-4.5a1.26,1.26,0,0,0,.42-1,1.24,1.24,0,0,0-.42-1,2.16,2.16,0,0,0-1.32-.33h-2.08V33.4h2.08A2.1,2.1,0,0,0,237.09,33.06Z"/><path class="0efb6b31-64c6-499f-a2ef-8e7d051cdb0d" d="M245.73,36.63a.67.67,0,0,1,.13.43.75.75,0,0,1-.46.64,4.14,4.14,0,0,1-1,.38,3.94,3.94,0,0,1-1,.14,3.16,3.16,0,0,1-2.32-.84,3.09,3.09,0,0,1-.85-2.3,3.53,3.53,0,0,1,.37-1.65,2.7,2.7,0,0,1,1-1.11,3,3,0,0,1,1.53-.4,2.75,2.75,0,0,1,1.42.36,2.44,2.44,0,0,1,.94,1,3.37,3.37,0,0,1,.33,1.55q0,.53-.47.53h-3.65a2,2,0,0,0,.48,1.26,1.62,1.62,0,0,0,1.19.4,2.25,2.25,0,0,0,.7-.1,6.85,6.85,0,0,0,.69-.27,1.37,1.37,0,0,1,.54-.2A.42.42,0,0,1,245.73,36.63Zm-3.49-3.22a1.87,1.87,0,0,0-.45,1.14h2.8a1.77,1.77,0,0,0-.37-1.15,1.22,1.22,0,0,0-1-.39A1.33,1.33,0,0,0,242.24,33.41Z"/><path class="0efb6b31-64c6-499f-a2ef-8e7d051cdb0d" d="M247.18,37.69a.74.74,0,0,1-.4-.67.59.59,0,0,1,.14-.4.43.43,0,0,1,.33-.15,1.37,1.37,0,0,1,.58.2,5.44,5.44,0,0,0,.72.28,2.93,2.93,0,0,0,.84.1,1.59,1.59,0,0,0,.81-.17.54.54,0,0,0,.29-.48.47.47,0,0,0-.12-.33,1.09,1.09,0,0,0-.42-.23,9,9,0,0,0-.92-.24,3.55,3.55,0,0,1-1.58-.63,1.41,1.41,0,0,1-.48-1.13,1.62,1.62,0,0,1,.32-1,2.09,2.09,0,0,1,.89-.68,3.22,3.22,0,0,1,1.28-.24,3.85,3.85,0,0,1,1,.13,3.06,3.06,0,0,1,.87.38.75.75,0,0,1,.4.66.63.63,0,0,1-.14.41.42.42,0,0,1-.33.17.67.67,0,0,1-.27-.06l-.33-.17a5.17,5.17,0,0,0-.62-.28,1.94,1.94,0,0,0-.64-.09,1.25,1.25,0,0,0-.72.19.59.59,0,0,0-.27.51.52.52,0,0,0,.27.47,3.88,3.88,0,0,0,1.05.32,6,6,0,0,1,1.3.4,1.52,1.52,0,0,1,.67.56,1.61,1.61,0,0,1,.2.85,1.59,1.59,0,0,1-.7,1.35,3.1,3.1,0,0,1-1.86.51A4,4,0,0,1,247.18,37.69Z"/><path class="0efb6b31-64c6-499f-a2ef-8e7d051cdb0d" d="M258.52,32.15a.69.69,0,0,1,.21.53v4.8a.67.67,0,0,1-.22.52.8.8,0,0,1-.56.2.75.75,0,0,1-.53-.19.66.66,0,0,1-.2-.51V37.2a2,2,0,0,1-.77.76,2.22,2.22,0,0,1-1.09.27q-2.23,0-2.23-2.5v-3a.7.7,0,0,1,.21-.53.78.78,0,0,1,.56-.2.8.8,0,0,1,.57.2.7.7,0,0,1,.21.53v3.06a1.46,1.46,0,0,0,.26,1,1,1,0,0,0,.82.31,1.33,1.33,0,0,0,1-.43,1.61,1.61,0,0,0,.39-1.13V32.68a.69.69,0,0,1,.21-.53.78.78,0,0,1,.56-.2A.8.8,0,0,1,258.52,32.15Z"/><path class="0efb6b31-64c6-499f-a2ef-8e7d051cdb0d" d="M269.06,32.51a2.81,2.81,0,0,1,.53,1.9v3a.7.7,0,0,1-.22.55.82.82,0,0,1-.56.19.8.8,0,0,1-.55-.19.7.7,0,0,1-.22-.55v-3a1.52,1.52,0,0,0-.24-1,.9.9,0,0,0-.74-.29,1.21,1.21,0,0,0-1,.42,1.67,1.67,0,0,0-.36,1.13v2.76a.7.7,0,0,1-.22.55.8.8,0,0,1-.55.19.82.82,0,0,1-.56-.19.69.69,0,0,1-.22-.55v-3a1.54,1.54,0,0,0-.24-1,.9.9,0,0,0-.74-.29,1.19,1.19,0,0,0-1,.42,1.69,1.69,0,0,0-.35,1.13v2.76a.69.69,0,0,1-.22.55.82.82,0,0,1-.56.19.8.8,0,0,1-.55-.19.7.7,0,0,1-.22-.55V32.67a.65.65,0,0,1,.22-.53.84.84,0,0,1,.56-.19.77.77,0,0,1,.53.18.65.65,0,0,1,.2.51v.3a1.94,1.94,0,0,1,.76-.75,2.25,2.25,0,0,1,1.1-.26,1.77,1.77,0,0,1,1.82,1.14,2,2,0,0,1,.81-.83,2.34,2.34,0,0,1,1.2-.31A1.93,1.93,0,0,1,269.06,32.51Z"/><path class="0efb6b31-64c6-499f-a2ef-8e7d051cdb0d" d="M276.29,36.63a.67.67,0,0,1,.13.43.75.75,0,0,1-.46.64,4.13,4.13,0,0,1-1,.38,3.94,3.94,0,0,1-1,.14,3.15,3.15,0,0,1-2.31-.84,3.08,3.08,0,0,1-.85-2.3,3.54,3.54,0,0,1,.37-1.65,2.71,2.71,0,0,1,1-1.11,3,3,0,0,1,1.53-.4,2.74,2.74,0,0,1,1.42.36,2.44,2.44,0,0,1,.94,1,3.37,3.37,0,0,1,.33,1.55c0,.35-.16.53-.47.53h-3.65a2,2,0,0,0,.48,1.26A1.62,1.62,0,0,0,274,37a2.26,2.26,0,0,0,.7-.1,6.85,6.85,0,0,0,.69-.27,1.37,1.37,0,0,1,.54-.2A.42.42,0,0,1,276.29,36.63Zm-3.49-3.22a1.87,1.87,0,0,0-.45,1.14h2.8a1.77,1.77,0,0,0-.37-1.15,1.22,1.22,0,0,0-1-.39A1.33,1.33,0,0,0,272.79,33.41Z"/><path class="0efb6b31-64c6-499f-a2ef-8e7d051cdb0d" d="M398.71,191.73a.61.61,0,0,1,.15-.45.75.75,0,0,1,.49-.18l.4,0a1,1,0,0,0,.77-.32,1.35,1.35,0,0,0,.26-.9v-5.53a.75.75,0,0,1,.79-.79.8.8,0,0,1,.59.22.78.78,0,0,1,.22.58v5.53a2.24,2.24,0,0,1-2.32,2.51l-.4,0Q398.71,192.43,398.71,191.73Z"/><path class="0efb6b31-64c6-499f-a2ef-8e7d051cdb0d" d="M405.25,192a2.66,2.66,0,0,1-1.08-1.1,3.82,3.82,0,0,1,0-3.34,2.67,2.67,0,0,1,1.08-1.1,3.65,3.65,0,0,1,3.26,0,2.63,2.63,0,0,1,1.08,1.1,3.88,3.88,0,0,1,0,3.34,2.62,2.62,0,0,1-1.08,1.1,3.65,3.65,0,0,1-3.26,0Zm2.77-1.31a2.88,2.88,0,0,0,0-2.92,1.37,1.37,0,0,0-1.14-.5,1.38,1.38,0,0,0-1.14.5,2.28,2.28,0,0,0-.4,1.46,2.3,2.3,0,0,0,.4,1.46,1.57,1.57,0,0,0,2.29,0Z"/><path class="0efb6b31-64c6-499f-a2ef-8e7d051cdb0d" d="M416.12,186.49a2.58,2.58,0,0,1,.95,1.09,3.74,3.74,0,0,1,.34,1.65,3.87,3.87,0,0,1-.34,1.67,2.62,2.62,0,0,1-1,1.12,2.5,2.5,0,0,1-1.39.4,2.37,2.37,0,0,1-1.17-.28,1.93,1.93,0,0,1-.79-.79v.31a.7.7,0,0,1-.21.53.78.78,0,0,1-.56.2.76.76,0,0,1-.55-.2.71.71,0,0,1-.2-.53v-7.4a.67.67,0,0,1,.22-.52.91.91,0,0,1,1.12,0,.64.64,0,0,1,.21.51v2.92a1.85,1.85,0,0,1,.78-.76,2.44,2.44,0,0,1,1.15-.27A2.56,2.56,0,0,1,416.12,186.49Zm-.67,4.2a2.31,2.31,0,0,0,.41-1.46,2.21,2.21,0,0,0-.4-1.42,1.56,1.56,0,0,0-2.29,0,2.25,2.25,0,0,0-.4,1.44,2.28,2.28,0,0,0,.4,1.45,1.53,1.53,0,0,0,2.28,0Z"/><path class="0efb6b31-64c6-499f-a2ef-8e7d051cdb0d" d="M422.39,192.17a.79.79,0,0,1-.22-.59v-7.24a.74.74,0,0,1,.2-.56.77.77,0,0,1,.56-.2h3a3.15,3.15,0,0,1,2.18.7,2.87,2.87,0,0,1,0,3.93,3.13,3.13,0,0,1-2.18.71h-2.22v2.66a.75.75,0,0,1-.8.8A.78.78,0,0,1,422.39,192.17Zm3.4-4.48q1.65,0,1.65-1.44t-1.65-1.44h-2v2.87Z"/><path class="0efb6b31-64c6-499f-a2ef-8e7d051cdb0d" d="M431.12,192a2.66,2.66,0,0,1-1.08-1.1,3.82,3.82,0,0,1,0-3.34,2.67,2.67,0,0,1,1.08-1.1,3.65,3.65,0,0,1,3.26,0,2.63,2.63,0,0,1,1.08,1.1,3.88,3.88,0,0,1,0,3.34,2.62,2.62,0,0,1-1.08,1.1,3.65,3.65,0,0,1-3.26,0Zm2.77-1.31a2.88,2.88,0,0,0,0-2.92,1.37,1.37,0,0,0-1.14-.5,1.38,1.38,0,0,0-1.14.5,2.28,2.28,0,0,0-.4,1.46,2.3,2.3,0,0,0,.4,1.46,1.57,1.57,0,0,0,2.29,0Z"/><path class="0efb6b31-64c6-499f-a2ef-8e7d051cdb0d" d="M441,186.27a.6.6,0,0,1,.19.48.68.68,0,0,1-.16.5,1,1,0,0,1-.58.21l-.37,0a1.5,1.5,0,0,0-1.07.5,1.62,1.62,0,0,0-.34,1.05v2.6a.69.69,0,0,1-.22.55.83.83,0,0,1-.56.19.8.8,0,0,1-.55-.19.7.7,0,0,1-.22-.55v-4.79a.66.66,0,0,1,.22-.53.8.8,0,0,1,.54-.19.75.75,0,0,1,.52.18.66.66,0,0,1,.2.51v.5a1.83,1.83,0,0,1,.7-.84,2.15,2.15,0,0,1,1-.33h.17A.67.67,0,0,1,441,186.27Z"/><path class="0efb6b31-64c6-499f-a2ef-8e7d051cdb0d" d="M446.16,191.79a.5.5,0,0,1-.24.45,1.16,1.16,0,0,1-.69.13l-.33,0a2,2,0,0,1-2.08-2.23v-2.7h-.62a.79.79,0,0,1-.51-.15.61.61,0,0,1,0-.87.79.79,0,0,1,.51-.15h.62v-1.14a.7.7,0,0,1,.21-.53.8.8,0,0,1,.57-.2.78.78,0,0,1,.56.2.7.7,0,0,1,.21.53v1.14h1.05a.79.79,0,0,1,.51.15.61.61,0,0,1,0,.87.79.79,0,0,1-.51.15h-1.05v2.81q0,.92.84,1l.33,0Q446.17,191.27,446.16,191.79Z"/><path class="0efb6b31-64c6-499f-a2ef-8e7d051cdb0d" d="M451.47,186.74a2.62,2.62,0,0,1,.61,1.9v3a.7.7,0,0,1-.2.53.75.75,0,0,1-.54.19.72.72,0,0,1-.53-.2.69.69,0,0,1-.2-.52v-.27a1.61,1.61,0,0,1-.66.76,2,2,0,0,1-1,.27,2.43,2.43,0,0,1-1.1-.25,2,2,0,0,1-.78-.68,1.72,1.72,0,0,1-.29-1,1.53,1.53,0,0,1,.34-1.05,2,2,0,0,1,1.11-.56,10.08,10.08,0,0,1,2.12-.17h.31v-.28a1.27,1.27,0,0,0-.26-.89,1.1,1.1,0,0,0-.84-.28,2.67,2.67,0,0,0-.73.11c-.25.07-.54.17-.88.3a1.23,1.23,0,0,1-.47.16.46.46,0,0,1-.37-.16.61.61,0,0,1-.14-.42.63.63,0,0,1,.11-.37,1,1,0,0,1,.35-.29,4,4,0,0,1,1-.37,5.34,5.34,0,0,1,1.18-.14A2.52,2.52,0,0,1,451.47,186.74Zm-1.25,4.15a1.5,1.5,0,0,0,.39-1.07v-.26h-.22a8.48,8.48,0,0,0-1.29.07,1.25,1.25,0,0,0-.66.26.66.66,0,0,0-.2.51.84.84,0,0,0,.28.65,1,1,0,0,0,.69.25A1.32,1.32,0,0,0,450.22,190.88Z"/><path class="0efb6b31-64c6-499f-a2ef-8e7d051cdb0d" d="M453.87,192.2a.7.7,0,0,1-.22-.55v-7.39a.68.68,0,0,1,.22-.54.82.82,0,0,1,.55-.19.84.84,0,0,1,.56.19.67.67,0,0,1,.22.54v7.39a.69.69,0,0,1-.22.55.83.83,0,0,1-.56.19A.8.8,0,0,1,453.87,192.2Z"/></g></g></svg>