<svg xmlns="http://www.w3.org/2000/svg" viewBox="0 0 844.85 775.31"><defs><style>.\30 6fbc545-4115-4959-8c30-19dc20399994,.\35 cb0e399-029f-4f9a-9f75-efa93c5cc3fc{fill:none;stroke:#191919;stroke-miterlimit:10;}.\35 cb0e399-029f-4f9a-9f75-efa93c5cc3fc{stroke-dasharray:1 5;}</style></defs><title>Asset 11xxxhdpi</title><g id="10a73242-2d29-435f-b99a-fa38b8a5850d" data-name="Layer 2"><g id="9ca8328a-e58b-4597-b6d5-2a3f2f57af3c" data-name="Layer 2"><polygon class="5cb0e399-029f-4f9a-9f75-efa93c5cc3fc" points="0.5 156.22 35.69 156.22 35.69 115.83 62.03 115.83 62.03 156.22 98.09 156.22 98.09 182.3 62.03 182.3 62.03 221.75 35.69 221.75 35.69 181.36 0.5 181.36 0.5 156.22"/><polygon class="06fbc545-4115-4959-8c30-19dc20399994" points="155.6 304.66 180.91 304.66 180.91 275.61 199.86 275.61 199.86 304.66 225.79 304.66 225.79 323.42 199.86 323.42 199.86 351.8 180.91 351.8 180.91 322.75 155.6 322.75 155.6 304.66"/><polygon class="06fbc545-4115-4959-8c30-19dc20399994" points="128.82 105.72 154.13 105.72 154.13 76.67 173.07 76.67 173.07 105.72 199.01 105.72 199.01 124.48 173.07 124.48 173.07 152.85 154.13 152.85 154.13 123.8 128.82 123.8 128.82 105.72"/><polygon class="5cb0e399-029f-4f9a-9f75-efa93c5cc3fc" points="184.69 182.31 225.6 182.31 225.6 135.36 256.21 135.36 256.21 182.31 298.13 182.31 298.13 212.64 256.21 212.64 256.21 258.5 225.6 258.5 225.6 211.54 184.69 211.54 184.69 182.31"/><polygon class="06fbc545-4115-4959-8c30-19dc20399994" points="230.87 359.56 248.34 359.56 248.34 339.51 261.42 339.51 261.42 359.56 279.32 359.56 279.32 372.51 261.42 372.51 261.42 392.1 248.34 392.1 248.34 372.05 230.87 372.05 230.87 359.56"/><polygon class="5cb0e399-029f-4f9a-9f75-efa93c5cc3fc" points="296 333.38 313.14 333.38 313.14 313.7 325.98 313.7 325.98 333.38 343.55 333.38 343.55 346.09 325.98 346.09 325.98 365.31 313.14 365.31 313.14 345.63 296 345.63 296 333.38"/><polygon class="5cb0e399-029f-4f9a-9f75-efa93c5cc3fc" points="217.64 52.83 234.78 52.83 234.78 33.15 247.62 33.15 247.62 52.83 265.19 52.83 265.19 65.54 247.62 65.54 247.62 84.76 234.78 84.76 234.78 65.08 217.64 65.08 217.64 52.83"/><polygon class="5cb0e399-029f-4f9a-9f75-efa93c5cc3fc" points="207.12 423.74 220.59 423.74 220.59 408.27 230.67 408.27 230.67 423.74 244.47 423.74 244.47 433.72 230.67 433.72 230.67 448.82 220.59 448.82 220.59 433.36 207.12 433.36 207.12 423.74"/><polygon class="5cb0e399-029f-4f9a-9f75-efa93c5cc3fc" points="128.06 249.94 141.53 249.94 141.53 234.49 151.61 234.49 151.61 249.94 165.41 249.94 165.41 259.93 151.61 259.93 151.61 275.03 141.53 275.03 141.53 259.57 128.06 259.57 128.06 249.94"/><polygon class="06fbc545-4115-4959-8c30-19dc20399994" points="244.47 490.83 293.23 490.83 293.23 434.86 329.73 434.86 329.73 490.83 379.7 490.83 379.7 526.98 329.73 526.98 329.73 581.65 293.23 581.65 293.23 525.67 244.47 525.67 244.47 490.83"/><polygon class="5cb0e399-029f-4f9a-9f75-efa93c5cc3fc" points="370.77 390.76 433.86 390.76 433.86 318.36 481.08 318.36 481.08 390.76 545.73 390.76 545.73 437.53 481.08 437.53 481.08 508.25 433.86 508.25 433.86 435.84 370.77 435.84 370.77 390.76"/><polygon class="5cb0e399-029f-4f9a-9f75-efa93c5cc3fc" points="363.56 558.23 392.02 558.23 392.02 525.57 413.32 525.57 413.32 558.23 442.47 558.23 442.47 579.32 413.32 579.32 413.32 611.22 392.02 611.22 392.02 578.56 363.56 578.56 363.56 558.23"/><polygon class="06fbc545-4115-4959-8c30-19dc20399994" points="314.52 45.7 351.6 45.7 351.6 3.15 379.36 3.15 379.36 45.7 417.35 45.7 417.35 73.19 379.36 73.19 379.36 114.76 351.6 114.76 351.6 72.2 314.52 72.2 314.52 45.7"/><polygon class="06fbc545-4115-4959-8c30-19dc20399994" points="336.02 183.28 351.98 183.28 351.98 164.96 363.93 164.96 363.93 183.28 380.28 183.28 380.28 195.11 363.93 195.11 363.93 213 351.98 213 351.98 194.68 336.02 194.68 336.02 183.28"/><polygon class="06fbc545-4115-4959-8c30-19dc20399994" points="281.01 255.45 298.48 255.45 298.48 235.4 311.56 235.4 311.56 255.45 329.46 255.45 329.46 268.4 311.56 268.4 311.56 287.99 298.48 287.99 298.48 267.94 281.01 267.94 281.01 255.45"/><polygon class="06fbc545-4115-4959-8c30-19dc20399994" points="66.46 234.34 77.43 234.34 77.43 221.75 85.64 221.75 85.64 234.34 96.87 234.34 96.87 242.47 85.64 242.47 85.64 254.76 77.43 254.76 77.43 242.17 66.46 242.17 66.46 234.34"/><polygon class="06fbc545-4115-4959-8c30-19dc20399994" points="637.18 507.65 658.96 507.65 658.96 482.66 675.25 482.66 675.25 507.65 697.56 507.65 697.56 523.79 675.25 523.79 675.25 548.2 658.96 548.2 658.96 523.21 637.18 523.21 637.18 507.65"/><polygon class="5cb0e399-029f-4f9a-9f75-efa93c5cc3fc" points="675.75 453.95 697.88 453.95 697.88 428.55 714.44 428.55 714.44 453.95 737.12 453.95 737.12 470.35 714.44 470.35 714.44 495.16 697.88 495.16 697.88 469.76 675.75 469.76 675.75 453.95"/><polygon class="06fbc545-4115-4959-8c30-19dc20399994" points="674.81 555.82 710 555.82 710 515.43 736.34 515.43 736.34 555.82 772.4 555.82 772.4 581.9 736.34 581.9 736.34 621.36 710 621.36 710 580.96 674.81 580.96 674.81 555.82"/><polygon class="06fbc545-4115-4959-8c30-19dc20399994" points="783.98 527.84 805.75 527.84 805.75 502.86 822.04 502.86 822.04 527.84 844.35 527.84 844.35 543.98 822.04 543.98 822.04 568.39 805.75 568.39 805.75 543.4 783.98 543.4 783.98 527.84"/><polygon class="06fbc545-4115-4959-8c30-19dc20399994" points="146.74 517.79 168.51 517.79 168.51 492.8 184.8 492.8 184.8 517.79 207.12 517.79 207.12 533.93 184.8 533.93 184.8 558.34 168.51 558.34 168.51 533.35 146.74 533.35 146.74 517.79"/><polygon class="06fbc545-4115-4959-8c30-19dc20399994" points="471.16 546.22 534.25 546.22 534.25 473.81 581.47 473.81 581.47 546.22 646.12 546.22 646.12 592.99 581.47 592.99 581.47 663.71 534.25 663.71 534.25 591.3 471.16 591.3 471.16 546.22"/><polygon class="06fbc545-4115-4959-8c30-19dc20399994" points="84.32 417.28 115.86 417.28 115.86 381.07 139.47 381.07 139.47 417.28 171.8 417.28 171.8 440.66 139.47 440.66 139.47 476.02 115.86 476.02 115.86 439.82 84.32 439.82 84.32 417.28"/><polygon class="5cb0e399-029f-4f9a-9f75-efa93c5cc3fc" points="398.74 716.07 430.28 716.07 430.28 679.86 453.89 679.86 453.89 716.07 486.21 716.07 486.21 739.45 453.89 739.45 453.89 774.81 430.28 774.81 430.28 738.61 398.74 738.61 398.74 716.07"/><polygon class="5cb0e399-029f-4f9a-9f75-efa93c5cc3fc" points="480.38 12.18 490.55 12.18 490.55 0.5 498.17 0.5 498.17 12.18 508.6 12.18 508.6 19.72 498.17 19.72 498.17 31.13 490.55 31.13 490.55 19.45 480.38 19.45 480.38 12.18"/><polygon class="06fbc545-4115-4959-8c30-19dc20399994" points="753.21 438.77 775.4 438.77 775.4 413.31 792 413.31 792 438.77 814.74 438.77 814.74 455.22 792 455.22 792 480.09 775.4 480.09 775.4 454.62 753.21 454.62 753.21 438.77"/></g></g></svg>