<svg xmlns="http://www.w3.org/2000/svg" viewBox="0 0 391.79 391.79"><defs><style>.\39 eaed706-5744-4822-9ec8-fc62e3550c3e{fill:#fff;}</style></defs><title>Asset 2xxxhdpi</title><g id="68bf74da-3c71-4898-ab77-2a1fb65144b8" data-name="Layer 2"><g id="83337179-5818-4ec8-b5a0-13e0ca7f18b2" data-name="Layer 1"><path class="9eaed706-5744-4822-9ec8-fc62e3550c3e" d="M195.89,391.79A195.89,195.89,0,0,1,57.38,57.38a195.89,195.89,0,0,1,277,277A194.61,194.61,0,0,1,195.89,391.79Zm0-385.11a189.21,189.21,0,0,0-133.79,323A189.21,189.21,0,0,0,329.69,62.1,188,188,0,0,0,195.89,6.68ZM83,319.24q3.21-4,7.21-4.58a11.19,11.19,0,0,1,11.82,9.51A13.19,13.19,0,0,1,92,336.76a11.2,11.2,0,0,1-11.85-9.47Q79.82,323.25,83,319.24Zm4.31,3.47a11.53,11.53,0,0,0-1.71,2.76,6.63,6.63,0,0,0-.54,2.37,4.07,4.07,0,0,0,.44,1.94A4.63,4.63,0,0,0,88.31,332a4.3,4.3,0,0,0,2,0,6.46,6.46,0,0,0,2.2-1,13.48,13.48,0,0,0,4.08-5.06,6.57,6.57,0,0,0,.52-2.35,4,4,0,0,0-.43-2,4.5,4.5,0,0,0-1.17-1.42,4.38,4.38,0,0,0-1.69-.83,4,4,0,0,0-2,0,7,7,0,0,0-2.18,1A11.44,11.44,0,0,0,87.34,322.71Zm-12-26.85,3.53,3.77-5.16,16.11,10.78-10.11,3.35,3.58-15.47,14.5-4.5-4.8,4.2-13.28-8.86,8.3-3.35-3.58ZM64.68,281.45l8.55,11.41-17,12.71L53,301.28,66.77,291l-5.33-7.12Zm-6.39-11.1,5.85,9.9L61,282.13l-1.56-2.64-11.88,7,1.56,2.64L45.89,291,40,281.13l3.19-1.88,1.56,2.64,11.88-7-1.56-2.64Zm-9-19.27,2.09,4.72L41.26,269.31l13.51-6,2,4.48-19.38,8.6-2.67-6L43,259.23l-11.1,4.93-2-4.48Zm-1.14-3.54-20.32,6-4.12-13.84,3.88-1.15,2.6,8.73,3.56-1.06-2.39-8,3.88-1.15,2.39,8,5.13-1.53-2.6-8.73,3.88-1.15Zm-8.12-39.2,1.77,14.14-21,2.64-.67-5.32,17-2.14-1.11-8.82Zm-.07-2-21.2.33-.23-14.44,4-.06.14,9.11,3.72-.06-.13-8.39,4-.06.13,8.39,5.35-.09-.14-9.1,4-.06Zm-.34-15.21L19.3,181.75l.6-5.82,21.83-5-.57,5.49-4.44.88L36,184l4.17,1.77Zm-6.87-13-7.18,1.45,6.73,2.89Zm13.83-27.83-1.5,6.37-8.93,4-.44,1.87,7.57,1.78-1.22,5.19-20.64-4.86,2-8.36a19,19,0,0,1,.92-3,6.63,6.63,0,0,1,1.45-2.16A5.57,5.57,0,0,1,28,149.78a5.43,5.43,0,0,1,2.92,0,6.55,6.55,0,0,1,3.59,2,7.77,7.77,0,0,1,1.67,3.43Zm-16.29,5a2.86,2.86,0,0,0-1.41,0,2,2,0,0,0-1.1.79,3.7,3.7,0,0,0-.52,1q-.2.59-.41,1.48l-.41,1.75L32,161.63l.35-1.49a11.29,11.29,0,0,0,.3-1.88,2.83,2.83,0,0,0-.26-1.42,2.49,2.49,0,0,0-.75-1A3.56,3.56,0,0,0,30.32,155.29Zm23.27-23-1.85,4.82L35,139.53l13.79,5.3L47,149.41,27.24,141.8l2.36-6.14,13.78-2L32,129.3l1.76-4.58Zm6.71-12.78L55,129.75,51.69,128l1.42-2.72-12.23-6.39-1.42,2.72-3.28-1.71,5.32-10.19,3.28,1.71-1.42,2.72,12.23,6.39L57,117.84Zm11.63-17.81L69,106l-16.85-1.48,12.23,8.29-2.75,4.06L44.12,105l3.69-5.45,13.88,1.17L51.63,93.91l2.75-4.06ZM85.27,84.83a26.61,26.61,0,0,1-1.62,3.45,18.79,18.79,0,0,1-2.56,3.65,11.07,11.07,0,0,1-7.51,4q-4.14.29-8.08-3.26a10.82,10.82,0,0,1-3.93-7.57A11,11,0,0,1,64.81,77a15.58,15.58,0,0,1,3.3-2.9,23.75,23.75,0,0,1,3.35-1.66l3.69,3.33-.33.36-1.37.26a12.31,12.31,0,0,0-1.64.42,9.46,9.46,0,0,0-1.83.85,7.48,7.48,0,0,0-1.74,1.44,7.07,7.07,0,0,0-1.36,2.15,5.7,5.7,0,0,0-.38,2.38,6.06,6.06,0,0,0,.71,2.45,8.57,8.57,0,0,0,1.93,2.41Q71.9,91,74.46,90.81a7.2,7.2,0,0,0,4.75-2.63l.44-.51c.17-.2.31-.37.42-.53L77,84.35l-2.78,3.08-2.95-2.66,6.25-6.93ZM112,64.72l-5.09,3.84-2.57-.31A9.76,9.76,0,0,1,103,71.48a10.6,10.6,0,0,1-2.32,2.4,8.64,8.64,0,0,1-5.74,2.05,6.48,6.48,0,0,1-5.55-4.4,6.32,6.32,0,0,1-.26-1.8,5.75,5.75,0,0,1,.24-1.65,13.57,13.57,0,0,1,.53-1.5,14.48,14.48,0,0,1-1.45-.1,5.89,5.89,0,0,1-1.3-.31,4.55,4.55,0,0,1-1.18-.61,5.14,5.14,0,0,1-1.07-1.09,4.62,4.62,0,0,1-.79-1.67,4.53,4.53,0,0,1,0-2,6.36,6.36,0,0,1,1.09-2.27,12.37,12.37,0,0,1,5-3.88,6.89,6.89,0,0,1,2.25-.5,4.13,4.13,0,0,1,1.87.4,3.94,3.94,0,0,1,1.45,1.2,6.12,6.12,0,0,1,.7,1.25,4.1,4.1,0,0,1,.34,1.54,5.84,5.84,0,0,1-.32,2,9,9,0,0,1-1.17,2.23l5.64.67-2.76-3.66,4-3,1,1.26a10.64,10.64,0,0,1,.77,1.23,8.66,8.66,0,0,1,.63,1.37,8.89,8.89,0,0,1,.39,1.51,6.91,6.91,0,0,1,.08,1.71l6.93.71ZM91.94,59.3a2.89,2.89,0,0,0-.85-.8,1.75,1.75,0,0,0-.81-.25,1.26,1.26,0,0,0-.65.13,3.3,3.3,0,0,0-.45.27,2.22,2.22,0,0,0-.34.33,1.63,1.63,0,0,0-.29.59,1.54,1.54,0,0,0,0,.77,2.35,2.35,0,0,0,.45.93,2.52,2.52,0,0,0,1.4.92,10,10,0,0,0,2.19.3,4.54,4.54,0,0,0,0-1.69A3.56,3.56,0,0,0,91.94,59.3Zm9.1,8.45-7.83-.86a5.17,5.17,0,0,0,.24,1.17,4.46,4.46,0,0,0,.72,1.42,3.81,3.81,0,0,0,1.24,1.11,3.46,3.46,0,0,0,1.36.41,3.51,3.51,0,0,0,1.33-.15,3.77,3.77,0,0,0,1.16-.59,5.41,5.41,0,0,0,1.13-1.11A4.18,4.18,0,0,0,101,67.75Zm27.37-11.22a10.2,10.2,0,0,1-8.11.83q-3.82-1.32-6.15-6a11.23,11.23,0,0,1-1.06-8.46,10,10,0,0,1,5.49-6.1,16.6,16.6,0,0,1,2.12-.9,15.24,15.24,0,0,1,1.92-.52,14.11,14.11,0,0,1,1.68-.19q.94-.05,1.53,0l2.26,4.52-.49.24-1.24-.3a12.42,12.42,0,0,0-1.61-.24,8.89,8.89,0,0,0-1.82,0,5.51,5.51,0,0,0-1.82.55,6,6,0,0,0-1.74,1.28,5.1,5.1,0,0,0-1.08,2,6,6,0,0,0-.19,2.55,9.42,9.42,0,0,0,1,3.14,9.09,9.09,0,0,0,2,2.74A6,6,0,0,0,123.28,53a5.06,5.06,0,0,0,2.18.2,6.19,6.19,0,0,0,2-.6,5.86,5.86,0,0,0,1.65-1.22,8.08,8.08,0,0,0,1.1-1.42,10.68,10.68,0,0,0,.73-1.37q.28-.65.48-1.15l.44-.22,2.23,4.46-.94,1.16A12.56,12.56,0,0,1,132,54.07a17.36,17.36,0,0,1-1.48,1.25A14.38,14.38,0,0,1,128.41,56.54ZM137.15,52l-7.2-19.94,13.58-4.9L144.9,31l-8.56,3.09,1.26,3.5,7.89-2.85,1.37,3.8L139,41.36l1.82,5,8.56-3.09,1.37,3.8Zm35.72-10.19-6.37,1.45L159,37l-1.87.43L158.82,45l-5.2,1.19L148.9,25.53l8.37-1.91a19.06,19.06,0,0,1,3.07-.47,6.63,6.63,0,0,1,2.58.35,5.56,5.56,0,0,1,2.19,1.39,5.43,5.43,0,0,1,1.29,2.62,6.56,6.56,0,0,1-.2,4.1,7.77,7.77,0,0,1-2.34,3ZM161.18,29.4a2.87,2.87,0,0,0-.61-1.27,2,2,0,0,0-1.2-.64,3.7,3.7,0,0,0-1.15,0q-.61.08-1.51.29l-1.75.4,1.27,5.57,1.5-.34a11.32,11.32,0,0,0,1.82-.55,2.84,2.84,0,0,0,1.17-.86,2.52,2.52,0,0,0,.54-1.1A3.56,3.56,0,0,0,161.18,29.4ZM178,41.51l-1.75-17.07-6.28.64-.41-4,17.89-1.83.41,4-6.28.64L183.3,41Zm24-1.1-11.5,0v-3.7h3.07l0-13.8h-3.07v-3.7l11.5,0v3.7h-3.07l0,13.8h3.07Zm18.95-15.62L212,23.95l-.38,4,8.21.78-.38,4L211.2,32,210.34,41l-5.31-.5,2-21.11,14.23,1.35ZM232,44.36l-11.29-2.18.7-3.63,3,.58L227,25.58,224,25l.7-3.63L236,23.55l-.7,3.63-3-.58-2.62,13.55,3,.58Zm11.68,3.72a10.19,10.19,0,0,1-6.46-5q-1.86-3.58-.34-8.58a11.23,11.23,0,0,1,5.05-6.86,10,10,0,0,1,8.18-.64,16.67,16.67,0,0,1,2.15.81,15.45,15.45,0,0,1,1.75.95,14,14,0,0,1,1.35,1q.71.6,1.14,1L255,35.65l-.52-.16q-.27-.44-.69-1.07a12.43,12.43,0,0,0-1-1.28,8.91,8.91,0,0,0-1.34-1.22,5.52,5.52,0,0,0-1.7-.85,6,6,0,0,0-2.14-.27,5.07,5.07,0,0,0-2.13.67,6,6,0,0,0-1.89,1.71,9.43,9.43,0,0,0-1.44,3,9.11,9.11,0,0,0-.46,3.33,6,6,0,0,0,.7,2.48,5.07,5.07,0,0,0,1.44,1.64,6.19,6.19,0,0,0,1.85.94,5.9,5.9,0,0,0,2,.26,8,8,0,0,0,1.78-.27,10.8,10.8,0,0,0,1.47-.49l1.14-.5.47.14-1.45,4.77-1.48.2a12.52,12.52,0,0,1-1.69.1,17.36,17.36,0,0,1-1.93-.11A14.36,14.36,0,0,1,243.63,48.09Zm7.3,1.73,15.23-16.42,5.34,2.38-2.05,22.3-5-2.25.55-4.5-6.13-2.73-3,3.41Zm14.51-2.47.86-7.27-4.84,5.5Zm8.79,13.73,8.81-14.72-5.41-3.24,2.08-3.47,15.43,9.24-2.08,3.47-5.41-3.24-8.81,14.72Zm19.86,13.5-9.21-6.88,2.21-3,2.46,1.84,8.25-11.06-2.46-1.84,2.22-3,9.22,6.88-2.22,3-2.46-1.84-8.25,11.06,2.46,1.84ZM317.91,82q-3.53,3.73-7.57,4a11.19,11.19,0,0,1-11-10.45,11.4,11.4,0,0,1,3.53-7.74,11.42,11.42,0,0,1,7.55-4A9.84,9.84,0,0,1,318,66.86a9.89,9.89,0,0,1,3.48,7.36Q321.44,78.27,317.91,82Zm-4-3.81a11.53,11.53,0,0,0,1.93-2.61,6.64,6.64,0,0,0,.74-2.31,4.08,4.08,0,0,0-.27-2,4.63,4.63,0,0,0-2.59-2.49,4.31,4.31,0,0,0-2-.16,6.44,6.44,0,0,0-2.28.86A13.45,13.45,0,0,0,305,74.2a6.56,6.56,0,0,0-.71,2.3,4,4,0,0,0,.27,2A4.5,4.5,0,0,0,305.57,80a4.38,4.38,0,0,0,1.61,1,4,4,0,0,0,2,.14,7,7,0,0,0,2.25-.84A11.46,11.46,0,0,0,313.9,78.19Zm9.74,27.75-3.21-4,6.46-15.64-11.57,9.19-3-3.84,16.6-13.18L333,83.58l-5.28,12.89,9.51-7.55,3,3.84Zm5.09,9A17.71,17.71,0,0,1,326.9,111a22.21,22.21,0,0,1-.78-3.56l4.32-2.6.25.42a12,12,0,0,0,.05,4.11,10.65,10.65,0,0,0,1.32,3.59,9.69,9.69,0,0,0,.71,1,4.25,4.25,0,0,0,.89.87,2.68,2.68,0,0,0,1.07.46,1.65,1.65,0,0,0,1.18-.26,1.58,1.58,0,0,0,.78-1.21,4,4,0,0,0-.16-1.66q-.32-1.08-.74-2.27a18.78,18.78,0,0,1-.66-2.31,7.2,7.2,0,0,1,.16-4.25,6,6,0,0,1,2.59-2.82,5.69,5.69,0,0,1,5.44-.32,10.5,10.5,0,0,1,4.85,4.47,18.89,18.89,0,0,1,1.63,3.45,16.64,16.64,0,0,1,.86,3.43l-4.14,2.5-.25-.41a10.64,10.64,0,0,0,0-3.37,9.26,9.26,0,0,0-1.22-3.37,7.32,7.32,0,0,0-.74-1,4.87,4.87,0,0,0-.94-.81,2.38,2.38,0,0,0-1-.39,1.55,1.55,0,0,0-1,.21,1.58,1.58,0,0,0-.8,1.16,5.9,5.9,0,0,0,.42,2.37l.67,2a19.94,19.94,0,0,1,.56,2.15,7.27,7.27,0,0,1-.13,3.94,5.5,5.5,0,0,1-2.48,2.76,6.1,6.1,0,0,1-5.65.48A10.83,10.83,0,0,1,328.73,114.91Zm30.83,24.24-3.3-8.33-3.72,1.47,3,7.67-3.76,1.49-3-7.67-8.47,3.35-2-5,19.71-7.8,5.26,13.3Zm-.13,24.52q-5,1.28-8.52-.67a11.19,11.19,0,0,1-3.74-14.7,13.19,13.19,0,0,1,15.63-4A11.2,11.2,0,0,1,366.57,159Q364.4,162.39,359.42,163.67Zm-1.36-5.36a11.5,11.5,0,0,0,3-1.18,6.63,6.63,0,0,0,1.85-1.57,4.07,4.07,0,0,0,.82-1.82,4.63,4.63,0,0,0-.87-3.49,4.29,4.29,0,0,0-1.59-1.19,6.44,6.44,0,0,0-2.39-.49,13.5,13.5,0,0,0-6.3,1.6,6.56,6.56,0,0,0-1.82,1.57,4,4,0,0,0-.83,1.83,4.51,4.51,0,0,0,.08,1.84,4.38,4.38,0,0,0,.85,1.68,4,4,0,0,0,1.6,1.17,7,7,0,0,0,2.35.49A11.45,11.45,0,0,0,358.06,158.31Zm-8,19.12q-.48-4.28,1.31-6.81a7.66,7.66,0,0,1,5.74-3l13.46-1.51.6,5.33L358,172.94a5.34,5.34,0,0,0-3.18,1.2A3.24,3.24,0,0,0,354,177a3.34,3.34,0,0,0,1.34,2.59,5.18,5.18,0,0,0,3.41.49l13.14-1.47.6,5.33-13.44,1.51a7.81,7.81,0,0,1-6.23-1.57Q350.51,181.83,350,177.42Zm1.1,30.6.14-5.16,15-7.83-14.77-.4.13-4.9,21.19.57-.18,6.58-12.32,6.48,12.14.33-.13,4.9ZM358,232.22a10.72,10.72,0,0,1-5-2.16,9.72,9.72,0,0,1-3-3.85,9.29,9.29,0,0,1-.76-3.8,26.9,26.9,0,0,1,.39-4.16l1.1-6.59,20.91,3.5-1.09,6.53a29.39,29.39,0,0,1-1,4.11,9.27,9.27,0,0,1-2,3.41,9.54,9.54,0,0,1-4.11,2.69A11.16,11.16,0,0,1,358,232.22Zm1-5.42a8.12,8.12,0,0,0,3.65-.12,5.38,5.38,0,0,0,3.69-4q.25-1.17.53-2.81l0-.1-13.09-2.19,0,.1q-.3,1.78-.44,3a4.88,4.88,0,0,0,.36,2.45,5.3,5.3,0,0,0,1.92,2.36A8.21,8.21,0,0,0,359,226.79Zm-11.44,3.93,18.16,13.1L364,249.41l-22.38.7,1.61-5.28h4.53l2-6.42L346,235.86Zm4.23,14.1,7.32,0-6-4.13Zm-12.54,10.41,15.7,6.91,2.54-5.77,3.7,1.63-7.25,16.46-3.7-1.63,2.54-5.77-15.7-6.91Zm-10.9,21.4,5.66-10,3.22,1.82-1.51,2.67,12,6.79,1.51-2.67,3.22,1.82-5.66,10-3.22-1.82,1.51-2.67-12-6.79-1.51,2.67ZM324,301.21q-4.16-3-4.91-7A11.19,11.19,0,0,1,328,282a13.19,13.19,0,0,1,13,9.49,11.2,11.2,0,0,1-8.91,12.28Q328.16,304.23,324,301.21Zm3.27-4.47a11.46,11.46,0,0,0,2.84,1.58,6.65,6.65,0,0,0,2.39.43,4.06,4.06,0,0,0,1.92-.53,4.62,4.62,0,0,0,2.14-2.89,4.3,4.3,0,0,0-.1-2,6.47,6.47,0,0,0-1.14-2.15,13.48,13.48,0,0,0-5.24-3.84,6.56,6.56,0,0,0-2.37-.41,4,4,0,0,0-1.94.52,4.51,4.51,0,0,0-1.37,1.24,4.36,4.36,0,0,0-.75,1.72,4,4,0,0,0,.12,2,7,7,0,0,0,1.12,2.13A11.42,11.42,0,0,0,327.27,296.74ZM301,310l3.59-3.71L321,310.64l-10.61-10.28,3.41-3.52L329,311.59l-4.58,4.73-13.46-3.56,8.72,8.45-3.41,3.52ZM196.6,358.9l-6.66,1,4.82,4.7-1.14,6.64,6-3.13,6,3.13-1.14-6.64,4.82-4.7-6.66-1-3-6Zm-32.25-5-6.66,1,4.82,4.7-1.14,6.64,6-3.13,6,3.13-1.14-6.64,4.82-4.7-6.66-1-3-6Zm-32.25-6-6.66,1,4.82,4.7-1.14,6.64,6-3.13,6,3.13-1.14-6.64,4.82-4.7-6.66-1-3-6Zm96.75,6-6.66,1,4.82,4.7-1.14,6.64,6-3.13,6,3.13-1.14-6.64,4.82-4.7-6.66-1-3-6Zm32.25-6-6.66,1,4.82,4.7-1.14,6.64,6-3.13,6,3.13-1.14-6.64,4.82-4.7-6.66-1-3-6ZM340.83,196a145,145,0,1,1-145-145A145,145,0,0,1,340.83,196ZM119.57,259.61l1.86-3.93a13.28,13.28,0,0,0-3.5-1.55,14.41,14.41,0,0,0-4-.58,10.24,10.24,0,0,0-4,.71,5.91,5.91,0,0,0-2.64,2,5.19,5.19,0,0,0-.93,3.07,4.59,4.59,0,0,0,.9,3,5.66,5.66,0,0,0,2.17,1.67,24.65,24.65,0,0,0,3.2,1.09q1.29.35,2,.61a3.48,3.48,0,0,1,1.18.69,1.4,1.4,0,0,1,.47,1.08,1.32,1.32,0,0,1-.63,1.18,3.2,3.2,0,0,1-1.74.4,9.22,9.22,0,0,1-3.46-.81,11.92,11.92,0,0,1-3.38-2.07L105.18,270a12.79,12.79,0,0,0,4,2.25,14,14,0,0,0,4.67.82,10.61,10.61,0,0,0,3.86-.67,6,6,0,0,0,2.73-2,5.22,5.22,0,0,0,1-3.22,4.82,4.82,0,0,0-.92-3.05,5.68,5.68,0,0,0-2.19-1.74,26.11,26.11,0,0,0-3.24-1.13q-1.32-.4-2-.66a3.5,3.5,0,0,1-1.13-.67,1.34,1.34,0,0,1-.46-1,1.1,1.1,0,0,1,.52-1,2.65,2.65,0,0,1,1.44-.34,9.47,9.47,0,0,1,2.87.57A16.6,16.6,0,0,1,119.57,259.61Zm15.1,2.1,7-7.78H136l-7.08,8.18v-8.18H124v18.87h4.92v-4.68l2.37-2.64,5,7.32h5.89Zm9.45,11.09H149V253.93h-4.92Zm8.58,0h12.92v-4.2h-8V253.93H152.7Zm15.15,0h12.92v-4.2h-8V253.93h-4.92ZM196,259.61l1.86-3.93a13.28,13.28,0,0,0-3.5-1.55,14.41,14.41,0,0,0-4-.58,10.24,10.24,0,0,0-4,.71,5.91,5.91,0,0,0-2.64,2,5.19,5.19,0,0,0-.93,3.07,4.59,4.59,0,0,0,.9,3,5.66,5.66,0,0,0,2.17,1.67,24.65,24.65,0,0,0,3.2,1.09q1.29.35,2,.61a3.48,3.48,0,0,1,1.18.69,1.4,1.4,0,0,1,.47,1.08,1.32,1.32,0,0,1-.63,1.18,3.2,3.2,0,0,1-1.74.4,9.22,9.22,0,0,1-3.46-.81,11.92,11.92,0,0,1-3.38-2.07L181.61,270a12.79,12.79,0,0,0,4,2.25,14,14,0,0,0,4.67.82,10.61,10.61,0,0,0,3.86-.67,6,6,0,0,0,2.73-2,5.22,5.22,0,0,0,1-3.22,4.82,4.82,0,0,0-.91-3.05,5.68,5.68,0,0,0-2.19-1.74,26.11,26.11,0,0,0-3.24-1.13q-1.32-.4-2-.66a3.5,3.5,0,0,1-1.13-.67,1.34,1.34,0,0,1-.46-1,1.1,1.1,0,0,1,.52-1,2.65,2.65,0,0,1,1.44-.34,9.47,9.47,0,0,1,2.87.57A16.6,16.6,0,0,1,196,259.61Zm2.74-1.61h5.6v14.8h4.93V258h5.65v-4.06H198.75ZM234,272.79l-7.91-18.87H221l-8.1,18.87H218l1.32-3.34h8.15l1.29,3.34ZM223.43,259l2.58,6.73h-5.22Zm12.27,13.83h4.39V260.84l4.84,10.07h3.18l4.82-10.07,0,11.95h4.36V253.93H252l-5.44,11-5.46-11H235.7Zm33.56-18.87H261v18.87h4.92v-5.22h3.36a7.93,7.93,0,0,0,5.6-1.84,6.71,6.71,0,0,0,2-5.18,6.14,6.14,0,0,0-2-4.88A8.25,8.25,0,0,0,269.26,253.93Zm-.24,9.72H265.9v-5.79H269a3.36,3.36,0,0,1,2.33.74,2.7,2.7,0,0,1,.82,2.11,2.81,2.81,0,0,1-.82,2.18A3.32,3.32,0,0,1,269,263.64Zm23.25-4,1.86-3.93a13.28,13.28,0,0,0-3.5-1.55,14.41,14.41,0,0,0-4-.58,10.24,10.24,0,0,0-4,.71,5.91,5.91,0,0,0-2.64,2,5.19,5.19,0,0,0-.93,3.07,4.59,4.59,0,0,0,.9,3,5.66,5.66,0,0,0,2.17,1.67,24.65,24.65,0,0,0,3.2,1.09q1.29.35,2,.61a3.48,3.48,0,0,1,1.18.69,1.4,1.4,0,0,1,.47,1.08,1.32,1.32,0,0,1-.63,1.18,3.2,3.2,0,0,1-1.74.4,9.22,9.22,0,0,1-3.46-.81,11.92,11.92,0,0,1-3.38-2.07L277.87,270a12.79,12.79,0,0,0,4,2.25,14,14,0,0,0,4.67.82,10.61,10.61,0,0,0,3.86-.67,6,6,0,0,0,2.73-2,5.22,5.22,0,0,0,1-3.22,4.82,4.82,0,0,0-.91-3.05A5.68,5.68,0,0,0,291,262.4a26.1,26.1,0,0,0-3.24-1.13q-1.32-.4-2-.66a3.5,3.5,0,0,1-1.13-.67,1.34,1.34,0,0,1-.46-1,1.1,1.1,0,0,1,.52-1,2.65,2.65,0,0,1,1.44-.34,9.47,9.47,0,0,1,2.87.57A16.6,16.6,0,0,1,292.27,259.61ZM154.51,290.44l1.15-1.39a7.06,7.06,0,0,0-2.39-1.56,7.6,7.6,0,0,0-2.86-.55,7.52,7.52,0,0,0-3.73.95,7.07,7.07,0,0,0-2.67,2.59,7,7,0,0,0-1,3.62,7.13,7.13,0,0,0,3.61,6.27,7.42,7.42,0,0,0,6.56.36,7.87,7.87,0,0,0,2.48-1.65l-1.17-1.27a6.29,6.29,0,0,1-1.9,1.24,5.53,5.53,0,0,1-2.18.45,5.41,5.41,0,0,1-5.45-5.43,5.31,5.31,0,0,1,.73-2.74,5.45,5.45,0,0,1,6.92-2.22A5.83,5.83,0,0,1,154.51,290.44Zm3.88,10.74h10.05v-1.76h-8.11v-4.5h7v-1.76h-7v-4.36h7.87v-1.76h-9.81Zm24.52,0-3.29-4.78a4.46,4.46,0,0,0,2.29-1.7,5,5,0,0,0,.8-2.89,4.36,4.36,0,0,0-1.46-3.52,6.23,6.23,0,0,0-4.15-1.24h-5.53v14.13h1.94v-4.4h3.59c.2,0,.46,0,.79,0l2.81,4.44ZM173.5,295v-6.22h3.59a4.36,4.36,0,0,1,2.79.78,2.76,2.76,0,0,1,1,2.29,2.87,2.87,0,0,1-1,2.35,4.28,4.28,0,0,1-2.79.8Zm10.84-6.2h4.54v12.35h1.94V288.83h4.56v-1.78h-11Zm13.26,12.35h1.94V287.05H197.6Zm6,0h1.94v-6H212v-1.76h-6.52v-4.64h7.25l0-1.76h-9.2Zm11.46,0H217V287.05H215Zm6,0h10.05v-1.76H223v-4.5h7v-1.76h-7v-4.36h7.87v-1.76H221ZM240,287.05H234.2v14.13h5.69a7.68,7.68,0,0,0,3.75-.92,6.82,6.82,0,0,0,2.63-2.53,7.32,7.32,0,0,0,0-7.23,6.76,6.76,0,0,0-2.61-2.53A7.58,7.58,0,0,0,240,287.05Zm0,12.37h-3.86V288.81h3.77a5.39,5.39,0,0,1,2.71.7,5.14,5.14,0,0,1,1.93,1.91,5.61,5.61,0,0,1,0,5.43,5,5,0,0,1-1.9,1.9A5.29,5.29,0,0,1,240,299.43ZM165.33,161l-36,12v17h133V173l-38-12s-14-15-14-33c0,0,10-5,10-23,0-22-26-20-26-20s-25-3-22,27c0,0,1,10,8,15C180.33,127,176.33,157,165.33,161Zm-36,52,67,22,66-22V199h-133Z"/></g></g></svg>